Genre:Animation | Comedy | Family 
Language:English
IMDb:http://www.imdb.com/title/tt1323594/
Source:TA/Slugger Thanks!!!
Encoder: Tony2
.............................................
General
Complete name : Despicable Me CAM 2010 MP4 FEEL-FREE
Format : MPEG-4
Format profile : Base Media
Codec ID : isom
File size : 749 MiB
Duration : 1h 18mn
Overall bit rate : 1 331 Kbps
...............................................
Video
ID : 1
Format : MPEG-4 Visual
Format profile : Simple@L1
Format settings, BVOP : No
Format settings, QPel : No
Format settings, GMC : No warppoints
Format settings, Matrix : Default (H.263)
Codec ID : 20
Duration : 1h 18mn
Bit rate mode : Variable
Bit rate : 1 198 Kbps
Width : 720 pixels
Height : 304 pixels
Display aspect ratio : 2.35:1
Frame rate mode : Constant
Frame rate : 29.970 fps
Resolution : 24 bits
Colorimetry : 4:2:0
Scan type : Progressive
Bits/(Pixel*Frame) : 0.183
Stream size : 674 MiB (90%)
................................................

Audio
ID : 2
Format : AAC
Format/Info : Advanced Audio Codec
Format version : Version 4
Format profile : LC
Format settings, SBR : No
Codec ID : 40
Duration : 1h 18mn
Bit rate mode : Variable
Bit rate : 128 Kbps
Channel(s) : 2 channels
Channel positions : L R
Sampling rate : 48.0 KHz
Resolution : 16 bits
Stream size : 72.0 MiB (10%)
.................................................
Plot:
A trio of orphan girls cause the normally deplorable Gru to rethink his plan to steal the moon
...................................................